<?xml version="1.0" encoding="utf-8"?>
<!-- Generator: Adobe Illustrator 16.0.0, SVG Export Plug-In . SVG Version: 6.00 Build 0)  -->
<!DOCTYPE svg PUBLIC "-//W3C//DTD SVG 1.1//EN" "http://www.w3.org/Graphics/SVG/1.1/DTD/svg11.dtd" [
        <!ENTITY ns_extend "http://ns.adobe.com/Extensibility/1.0/">
        <!ENTITY ns_ai "http://ns.adobe.com/AdobeIllustrator/10.0/">
        <!ENTITY ns_graphs "http://ns.adobe.com/Graphs/1.0/">
        <!ENTITY ns_vars "http://ns.adobe.com/Variables/1.0/">
        <!ENTITY ns_imrep "http://ns.adobe.com/ImageReplacement/1.0/">
        <!ENTITY ns_sfw "http://ns.adobe.com/SaveForWeb/1.0/">
        <!ENTITY ns_custom "http://ns.adobe.com/GenericCustomNamespace/1.0/">
        <!ENTITY ns_adobe_xpath "http://ns.adobe.com/XPath/1.0/">
        ]>
<svg version="1.1" id="Layer_1" xmlns:x="&ns_extend;" xmlns:i="&ns_ai;" xmlns:graph="&ns_graphs;"
	 xmlns="http://www.w3.org/2000/svg" xmlns:xlink="http://www.w3.org/1999/xlink" x="0px" y="0px" width="98.12px" height="32px"
	 viewBox="0 0 98.12 32" enable-background="new 0 0 98.12 32" xml:space="preserve">
<metadata>
	<sfw  xmlns="&ns_sfw;">
		<slices></slices>
		<sliceSourceBounds  height="32.02" width="98.12" x="234.013" y="59.5" bottomLeftOrigin="true"></sliceSourceBounds>
	</sfw>
</metadata>
<circle fill="#FFFFFF" cx="15.562" cy="16.188" r="12.188"/>
<path fill="#4DC8F1" d="M16,0C7.164,0,0,7.163,0,16s7.164,16,16,16s16-7.163,16-16S24.836,0,16,0 M24.046,13.243
	c0.235,5.219-3.656,11.039-10.547,11.039c-2.099,0-4.046-0.615-5.688-1.668c1.969,0.229,3.938-0.313,5.494-1.537
	c-1.624-0.029-2.995-1.103-3.467-2.577c0.581,0.111,1.153,0.079,1.676-0.062c-1.785-0.357-3.018-1.97-2.977-3.688
	c0.5,0.278,1.069,0.445,1.682,0.464c-1.652-1.104-2.121-3.287-1.148-4.954c1.83,2.246,4.564,3.723,7.648,3.878
	c-0.541-2.322,1.22-4.557,3.614-4.557c1.064,0,2.032,0.449,2.708,1.171c0.847-0.166,1.641-0.475,2.354-0.9
	c-0.273,0.866-0.861,1.594-1.631,2.052c0.75-0.089,1.466-0.289,2.131-0.584C25.4,12.067,24.771,12.72,24.046,13.243"/>
<g id="Layer_1_1_">
</g>
<path fill="#3C5B9B" d="M49.06,0c-8.837,0-16,7.163-16,15.999c0,8.837,7.163,16,16,16s16-7.163,16-16C65.06,7.163,57.896,0,49.06,0
	 M53.795,9.413H51.56c-0.79,0-0.954,0.324-0.954,1.14v1.974h3.188l-0.308,3.464h-2.883v10.347h-4.132V16.034h-2.148v-3.508h2.148
	V9.764c0-2.592,1.387-3.946,4.461-3.946h2.857L53.795,9.413L53.795,9.413z"/>
<path fill="#0173B2" d="M82.12-0.02c-8.837,0-16,7.163-16,15.999c0,8.837,7.163,16,16,16s16-7.162,16-16
	C98.12,7.143,90.956-0.02,82.12-0.02"/>
<g>
	<rect x="74.477" y="11.76" fill="#FFFFFF" width="4.062" height="11.826"/>
	<ellipse fill="#FFFFFF" cx="76.508" cy="7.917" rx="2.029" ry="2.069"/>
	<path fill="#FFFFFF" d="M91.879,17.088c0-3.192-0.675-5.328-4.324-5.328c-1.754,0-2.932,0.665-3.412,1.596h-0.051V11.76h-3.234
		v11.826h3.381v-5.861c0-1.545,0.287-3.042,2.164-3.042c1.848,0,1.996,1.768,1.996,3.143v5.762h3.48V17.088z"/>
</g>
</svg>
