<svg id="Layer_1" data-name="Layer 1" xmlns="http://www.w3.org/2000/svg" viewBox="0 0 411.5 318.21">
    <defs>
        <style>.cls-1{fill:#137ec0;}.cls-2{fill:#eb274e;}.cls-3{fill:#fff;}.cls-4{fill:#157ec0;}.cls-5{fill:#ea2a4f;}
        </style>
    </defs>
    <title>Synectiks_logo1</title>
    <rect id="_Rectangle_" data-name="&lt;Rectangle&gt;" class="cls-1" y="192.65" width="19.75" height="99.5"/>
    <path id="_Path_" data-name="&lt;Path&gt;" class="cls-1"
          d="M389.33,215.67c37.33,3,79.89,34.58,79.67,83,0,3.87-2,81.33-83.5,81.33h-247V360.75H386c39.5,0,59.5-29.25,61.67-62.53-3.67-46-39.67-67-82.67-63.89,16-102-76-126.67-106-126.67-71.33,0-100.75,49.33-100.75,49.33v93.25H138.5v-99.5s6.84-21.67,44.5-44.08c68.33-40.67,135-6,143.33-1.67C392.33,139.33,389.33,215.67,389.33,215.67Z"
          transform="translate(-57.5 -87.1)"/>
    <rect id="_Rectangle_2" data-name="&lt;Rectangle&gt;" class="cls-2" x="40.5" y="62.65" width="19.75"
          height="229.5"/>
    <g id="_Group_" data-name="&lt;Group&gt;">
        <path id="_Compound_Path_" data-name="&lt;Compound Path&gt;" class="cls-3"
              d="M68.56,394.1v1.46h-.7V401h.7v1.46h-3.3V401H66v-5.47h-.7V394.1Z" transform="translate(-57.5 -87.1)"/>
        <path id="_Compound_Path_2" data-name="&lt;Compound Path&gt;" class="cls-3"
              d="M71.66,402.18V400.3a3.6,3.6,0,0,0,1.11.64,3.56,3.56,0,0,0,1.21.21,2.68,2.68,0,0,0,.62-.06,1.46,1.46,0,0,0,.45-.18.78.78,0,0,0,.27-.27.67.67,0,0,0,.09-.34.73.73,0,0,0-.14-.44,1.51,1.51,0,0,0-.38-.36,4,4,0,0,0-.58-.32l-.72-.31a3.68,3.68,0,0,1-1.47-1,2.19,2.19,0,0,1-.48-1.43,2.28,2.28,0,0,1,.26-1.13,2.24,2.24,0,0,1,.72-.78,3.22,3.22,0,0,1,1.05-.45,5.4,5.4,0,0,1,1.27-.14,7.61,7.61,0,0,1,1.16.08,4.57,4.57,0,0,1,.93.24V396a2.83,2.83,0,0,0-.46-.26,3.64,3.64,0,0,0-.51-.18,3.91,3.91,0,0,0-.52-.11,3.71,3.71,0,0,0-.5,0,2.58,2.58,0,0,0-.59.06,1.5,1.5,0,0,0-.45.17.86.86,0,0,0-.28.27.63.63,0,0,0-.1.35.67.67,0,0,0,.11.38A1.28,1.28,0,0,0,74,397a3.36,3.36,0,0,0,.5.29l.66.3a7.38,7.38,0,0,1,.91.45,3.22,3.22,0,0,1,.69.54,2.09,2.09,0,0,1,.44.68,2.73,2.73,0,0,1-.11,2.07,2.16,2.16,0,0,1-.72.77,3.14,3.14,0,0,1-1.06.42,6.15,6.15,0,0,1-1.28.13,7.12,7.12,0,0,1-1.32-.12A4,4,0,0,1,71.66,402.18Z"
              transform="translate(-57.5 -87.1)"/>
        <path id="_Compound_Path_3" data-name="&lt;Compound Path&gt;" class="cls-3"
              d="M84.6,402.65a3.91,3.91,0,0,1-2.94-1.17,4.22,4.22,0,0,1-1.14-3.06,4.52,4.52,0,0,1,1.15-3.22A4,4,0,0,1,84.74,394a3.81,3.81,0,0,1,2.91,1.18,4.34,4.34,0,0,1,1.11,3.11,4.45,4.45,0,0,1-1.15,3.19A4,4,0,0,1,84.6,402.65Zm.08-7.06a1.91,1.91,0,0,0-1.58.75,3.11,3.11,0,0,0-.59,2,3.06,3.06,0,0,0,.59,2,2,2,0,0,0,3.09,0,3,3,0,0,0,.57-2,3.28,3.28,0,0,0-.56-2A1.81,1.81,0,0,0,84.68,395.59Z"
              transform="translate(-57.5 -87.1)"/>
        <path id="_Compound_Path_4" data-name="&lt;Compound Path&gt;" class="cls-3"
              d="M98,402.32v-1.52a2.84,2.84,0,0,0,1.59.43,1.82,1.82,0,0,0,1.5-.66,2.94,2.94,0,0,0,.54-1.87h0a1.9,1.9,0,0,1-1.69.83,2.24,2.24,0,0,1-1.71-.72,2.62,2.62,0,0,1-.68-1.87,2.88,2.88,0,0,1,.83-2.15,2.92,2.92,0,0,1,2.14-.81,2.59,2.59,0,0,1,2.15,1,4.64,4.64,0,0,1,.8,2.92,5.62,5.62,0,0,1-1,3.5,3.21,3.21,0,0,1-2.69,1.25A4.4,4.4,0,0,1,98,402.32Zm2.43-6.95a1,1,0,0,0-.79.39,1.56,1.56,0,0,0-.31,1,1.51,1.51,0,0,0,.31,1,1,1,0,0,0,.83.37,1,1,0,0,0,.79-.35,1.28,1.28,0,0,0,.3-.88,1.82,1.82,0,0,0-.32-1.1A1,1,0,0,0,100.43,395.37Z"
              transform="translate(-57.5 -87.1)"/>
        <path id="_Compound_Path_5" data-name="&lt;Compound Path&gt;" class="cls-3"
              d="M109.65,402.65q-3,0-3-4.21a5.73,5.73,0,0,1,.81-3.33,2.7,2.7,0,0,1,2.35-1.15q2.93,0,2.93,4.28a5.64,5.64,0,0,1-.8,3.27A2.63,2.63,0,0,1,109.65,402.65Zm.08-7.28q-1.2,0-1.2,3,0,2.84,1.18,2.84t1.15-2.93Q110.86,395.37,109.73,395.37Z"
              transform="translate(-57.5 -87.1)"/>
        <path id="_Compound_Path_6" data-name="&lt;Compound Path&gt;" class="cls-3"
              d="M118.83,402.65q-3,0-3-4.21a5.73,5.73,0,0,1,.81-3.33A2.7,2.7,0,0,1,119,394q2.93,0,2.93,4.28a5.64,5.64,0,0,1-.8,3.27A2.63,2.63,0,0,1,118.83,402.65Zm.08-7.28q-1.2,0-1.2,3,0,2.84,1.18,2.84T120,398.3Q120,395.37,118.92,395.37Z"
              transform="translate(-57.5 -87.1)"/>
        <path id="_Compound_Path_7" data-name="&lt;Compound Path&gt;" class="cls-3"
              d="M130.92,402.5H125.6V401h1.74V395.8l-1.79.39v-1.5l3.63-.73V401h1.73Z"
              transform="translate(-57.5 -87.1)"/>
        <path id="_Compound_Path_8" data-name="&lt;Compound Path&gt;" class="cls-3"
              d="M135.39,398.36a1.09,1.09,0,0,1-.76-.28.9.9,0,0,1-.3-.69.87.87,0,0,1,.31-.69,1.16,1.16,0,0,1,.78-.27,1.11,1.11,0,0,1,.78.27.94.94,0,0,1,0,1.39A1.17,1.17,0,0,1,135.39,398.36Zm0,4.29a1.08,1.08,0,0,1-.76-.28.9.9,0,0,1-.3-.69.87.87,0,0,1,.31-.69,1.16,1.16,0,0,1,.78-.27,1.11,1.11,0,0,1,.78.27.94.94,0,0,1,0,1.39A1.16,1.16,0,0,1,135.39,402.65Z"
              transform="translate(-57.5 -87.1)"/>
        <path id="_Compound_Path_9" data-name="&lt;Compound Path&gt;" class="cls-3"
              d="M142.08,400.93v0h3.41v1.54H140v-1.44l2.41-2.3a6.74,6.74,0,0,0,1-1.17,1.84,1.84,0,0,0,.3-1q0-1.16-1.25-1.16a3.13,3.13,0,0,0-2.07.86v-1.63a4.45,4.45,0,0,1,2.47-.71,2.91,2.91,0,0,1,2,.65,2.23,2.23,0,0,1,.72,1.75,4.3,4.3,0,0,1-1.76,3Z"
              transform="translate(-57.5 -87.1)"/>
        <path id="_Compound_Path_10" data-name="&lt;Compound Path&gt;" class="cls-3"
              d="M151.91,402.65q-3,0-3-4.21a5.73,5.73,0,0,1,.81-3.33,2.7,2.7,0,0,1,2.35-1.15q2.93,0,2.93,4.28a5.64,5.64,0,0,1-.8,3.27A2.63,2.63,0,0,1,151.91,402.65Zm.08-7.28q-1.2,0-1.2,3,0,2.84,1.18,2.84t1.15-2.93Q153.12,395.37,152,395.37Z"
              transform="translate(-57.5 -87.1)"/>
        <path id="_Compound_Path_11" data-name="&lt;Compound Path&gt;" class="cls-3"
              d="M161.1,402.65q-3,0-3-4.21a5.73,5.73,0,0,1,.81-3.33,2.7,2.7,0,0,1,2.35-1.15q2.93,0,2.93,4.28a5.64,5.64,0,0,1-.8,3.27A2.63,2.63,0,0,1,161.1,402.65Zm.08-7.28q-1.2,0-1.2,3,0,2.84,1.18,2.84t1.15-2.93Q162.3,395.37,161.18,395.37Z"
              transform="translate(-57.5 -87.1)"/>
        <path id="_Compound_Path_12" data-name="&lt;Compound Path&gt;" class="cls-3"
              d="M169,398.13v0a2,2,0,0,1-1.44-1.92,2,2,0,0,1,.77-1.6,3.06,3.06,0,0,1,2-.63,3.12,3.12,0,0,1,2,.59,1.85,1.85,0,0,1,.74,1.52,2.16,2.16,0,0,1-1.59,2v0a2.61,2.61,0,0,1,1.33.83,2,2,0,0,1,.47,1.3,2.11,2.11,0,0,1-.82,1.76,3.65,3.65,0,0,1-2.3.64,3.18,3.18,0,0,1-2.06-.63,2,2,0,0,1-.78-1.67A2.34,2.34,0,0,1,169,398.13Zm1.24.7q-1.18.46-1.18,1.42a.94.94,0,0,0,.36.76,1.47,1.47,0,0,0,1.77,0,1,1,0,0,0,.34-.77Q171.57,399.28,170.28,398.84Zm1.09-2.61a.89.89,0,0,0-.27-.68,1,1,0,0,0-.72-.25,1,1,0,0,0-.73.27.89.89,0,0,0-.29.68q0,.79,1,1.19Q171.37,397,171.37,396.22Z"
              transform="translate(-57.5 -87.1)"/>
        <path id="_Compound_Path_13" data-name="&lt;Compound Path&gt;" class="cls-3"
              d="M185.2,394.1v1.46h-.7V401h.7v1.46h-3.3V401h.7v-5.47h-.7V394.1Z" transform="translate(-57.5 -87.1)"/>
        <path id="_Compound_Path_14" data-name="&lt;Compound Path&gt;" class="cls-3"
              d="M188.3,402.18V400.3a3.6,3.6,0,0,0,1.11.64,3.56,3.56,0,0,0,1.21.21,2.68,2.68,0,0,0,.62-.06,1.46,1.46,0,0,0,.45-.18.78.78,0,0,0,.27-.27.67.67,0,0,0,.09-.34.73.73,0,0,0-.14-.44,1.51,1.51,0,0,0-.38-.36,4,4,0,0,0-.58-.32l-.72-.31a3.68,3.68,0,0,1-1.47-1,2.19,2.19,0,0,1-.48-1.43,2.28,2.28,0,0,1,.26-1.13,2.24,2.24,0,0,1,.72-.78,3.22,3.22,0,0,1,1.05-.45,5.4,5.4,0,0,1,1.27-.14,7.61,7.61,0,0,1,1.16.08,4.57,4.57,0,0,1,.93.24V396a2.83,2.83,0,0,0-.46-.26,3.64,3.64,0,0,0-.51-.18,3.91,3.91,0,0,0-.52-.11,3.71,3.71,0,0,0-.5,0,2.58,2.58,0,0,0-.59.06,1.5,1.5,0,0,0-.45.17.86.86,0,0,0-.28.27.63.63,0,0,0-.1.35.67.67,0,0,0,.11.38,1.28,1.28,0,0,0,.32.32,3.36,3.36,0,0,0,.5.29l.66.3a7.38,7.38,0,0,1,.91.45,3.22,3.22,0,0,1,.69.54,2.09,2.09,0,0,1,.44.68,2.73,2.73,0,0,1-.11,2.07,2.16,2.16,0,0,1-.72.77,3.14,3.14,0,0,1-1.06.42,6.15,6.15,0,0,1-1.28.13,7.12,7.12,0,0,1-1.32-.12A4,4,0,0,1,188.3,402.18Z"
              transform="translate(-57.5 -87.1)"/>
        <path id="_Compound_Path_15" data-name="&lt;Compound Path&gt;" class="cls-3"
              d="M201.24,402.65a3.91,3.91,0,0,1-2.94-1.17,4.22,4.22,0,0,1-1.14-3.06,4.52,4.52,0,0,1,1.15-3.22,4,4,0,0,1,3.06-1.23,3.81,3.81,0,0,1,2.91,1.18,4.34,4.34,0,0,1,1.11,3.11,4.45,4.45,0,0,1-1.15,3.19A4,4,0,0,1,201.24,402.65Zm.08-7.06a1.91,1.91,0,0,0-1.58.75,3.11,3.11,0,0,0-.59,2,3.06,3.06,0,0,0,.59,2,2,2,0,0,0,3.09,0,3,3,0,0,0,.57-2,3.28,3.28,0,0,0-.56-2A1.81,1.81,0,0,0,201.32,395.59Z"
              transform="translate(-57.5 -87.1)"/>
        <path id="_Compound_Path_16" data-name="&lt;Compound Path&gt;" class="cls-3"
              d="M216.46,400.93v0h3.41v1.54h-5.53v-1.44l2.41-2.3a6.74,6.74,0,0,0,1-1.17,1.84,1.84,0,0,0,.3-1q0-1.16-1.25-1.16a3.13,3.13,0,0,0-2.07.86v-1.63a4.45,4.45,0,0,1,2.47-.71,2.91,2.91,0,0,1,2,.65,2.23,2.23,0,0,1,.72,1.75,4.3,4.3,0,0,1-1.76,3Z"
              transform="translate(-57.5 -87.1)"/>
        <path id="_Compound_Path_17" data-name="&lt;Compound Path&gt;" class="cls-3"
              d="M229.29,395l-3,7.55h-2l3-6.89h-3.91V394.1h5.85Z" transform="translate(-57.5 -87.1)"/>
        <path id="_Compound_Path_18" data-name="&lt;Compound Path&gt;" class="cls-3"
              d="M235.48,402.65q-3,0-3-4.21a5.73,5.73,0,0,1,.81-3.33,2.7,2.7,0,0,1,2.35-1.15q2.93,0,2.93,4.28a5.64,5.64,0,0,1-.8,3.27A2.63,2.63,0,0,1,235.48,402.65Zm.08-7.28q-1.2,0-1.2,3,0,2.84,1.18,2.84t1.15-2.93Q236.68,395.37,235.56,395.37Z"
              transform="translate(-57.5 -87.1)"/>
        <path id="_Compound_Path_19" data-name="&lt;Compound Path&gt;" class="cls-3"
              d="M244.66,402.65q-3,0-3-4.21a5.73,5.73,0,0,1,.81-3.33,2.7,2.7,0,0,1,2.35-1.15q2.93,0,2.93,4.28a5.64,5.64,0,0,1-.8,3.27A2.63,2.63,0,0,1,244.66,402.65Zm.08-7.28q-1.2,0-1.2,3,0,2.84,1.18,2.84t1.15-2.93Q245.86,395.37,244.74,395.37Z"
              transform="translate(-57.5 -87.1)"/>
        <path id="_Compound_Path_20" data-name="&lt;Compound Path&gt;" class="cls-3"
              d="M256.74,402.5h-5.31V401h1.74V395.8l-1.79.39v-1.5L255,394V401h1.73Z"
              transform="translate(-57.5 -87.1)"/>
        <path id="_Compound_Path_21" data-name="&lt;Compound Path&gt;" class="cls-3"
              d="M272.19,402.2a5.54,5.54,0,0,1-2.4.45,4,4,0,0,1-3-1.14,4.16,4.16,0,0,1-1.11-3,4.44,4.44,0,0,1,1.25-3.27,4.36,4.36,0,0,1,3.23-1.25,6,6,0,0,1,2.07.31v1.82a3.68,3.68,0,0,0-1.92-.5,2.55,2.55,0,0,0-1.91.74,2.76,2.76,0,0,0-.73,2,2.71,2.71,0,0,0,.69,1.94,2.42,2.42,0,0,0,1.85.72,3.94,3.94,0,0,0,2-.54Z"
              transform="translate(-57.5 -87.1)"/>
        <path id="_Compound_Path_22" data-name="&lt;Compound Path&gt;" class="cls-3"
              d="M281.14,400h-3.91q.09,1.31,1.65,1.31a3.21,3.21,0,0,0,1.74-.47v1.34a4.57,4.57,0,0,1-2.16.45,2.79,2.79,0,0,1-3.06-3.05,3.21,3.21,0,0,1,.87-2.37,2.89,2.89,0,0,1,2.13-.87,2.62,2.62,0,0,1,2,.78,3,3,0,0,1,.72,2.12Zm-1.72-1.14q0-1.29-1-1.29a1,1,0,0,0-.77.37,1.68,1.68,0,0,0-.4.92Z"
              transform="translate(-57.5 -87.1)"/>
        <path id="_Compound_Path_23" data-name="&lt;Compound Path&gt;" class="cls-3"
              d="M288.44,398.17a1.61,1.61,0,0,0-.78-.18,1.12,1.12,0,0,0-.94.44,1.93,1.93,0,0,0-.34,1.2v2.87h-1.85v-6h1.85v1.11h0a1.6,1.6,0,0,1,1.58-1.22,1.19,1.19,0,0,1,.46.07Z"
              transform="translate(-57.5 -87.1)"/>
        <path id="_Compound_Path_24" data-name="&lt;Compound Path&gt;" class="cls-3"
              d="M295.2,402.43a2.74,2.74,0,0,1-1.24.22q-2,0-2-2v-2.75h-1V396.5h1v-1.29l1.85-.53v1.82h1.35v1.37h-1.35v2.43q0,.94.74.94a1.25,1.25,0,0,0,.6-.17Z"
              transform="translate(-57.5 -87.1)"/>
        <path id="_Compound_Path_25" data-name="&lt;Compound Path&gt;" class="cls-3"
              d="M299.46,395.55a1.08,1.08,0,0,1-.77-.28.9.9,0,0,1-.3-.68.86.86,0,0,1,.3-.68,1.25,1.25,0,0,1,1.54,0,.87.87,0,0,1,.3.68.89.89,0,0,1-.3.69A1.1,1.1,0,0,1,299.46,395.55Zm.91,6.95h-1.85v-6h1.85Z"
              transform="translate(-57.5 -87.1)"/>
        <path id="_Compound_Path_26" data-name="&lt;Compound Path&gt;" class="cls-3"
              d="M308.13,395a1.87,1.87,0,0,0-.69-.14q-.89,0-.89,1v.64h1.37v1.37h-1.37v4.63h-1.85v-4.63h-1V396.5h1v-.74a2.16,2.16,0,0,1,.67-1.65,2.55,2.55,0,0,1,1.82-.63,3.19,3.19,0,0,1,.94.12Z"
              transform="translate(-57.5 -87.1)"/>
        <path id="_Compound_Path_27" data-name="&lt;Compound Path&gt;" class="cls-3"
              d="M312,395.55a1.08,1.08,0,0,1-.77-.28.9.9,0,0,1-.3-.68.86.86,0,0,1,.3-.68,1.25,1.25,0,0,1,1.54,0,.87.87,0,0,1,.3.68.89.89,0,0,1-.3.69A1.1,1.1,0,0,1,312,395.55Zm.91,6.95H311.1v-6h1.85Z"
              transform="translate(-57.5 -87.1)"/>
        <path id="_Compound_Path_28" data-name="&lt;Compound Path&gt;" class="cls-3"
              d="M322.18,400h-3.91q.09,1.31,1.65,1.31a3.21,3.21,0,0,0,1.74-.47v1.34a4.57,4.57,0,0,1-2.16.45,2.79,2.79,0,0,1-3.06-3.05,3.21,3.21,0,0,1,.87-2.37,2.89,2.89,0,0,1,2.13-.87,2.62,2.62,0,0,1,2,.78,3,3,0,0,1,.72,2.12Zm-1.72-1.14q0-1.29-1-1.29a1,1,0,0,0-.77.37,1.68,1.68,0,0,0-.4.92Z"
              transform="translate(-57.5 -87.1)"/>
        <path id="_Compound_Path_29" data-name="&lt;Compound Path&gt;" class="cls-3"
              d="M331.43,402.5h-1.85v-.83h0a2.08,2.08,0,0,1-1.86,1,2.27,2.27,0,0,1-1.81-.79,3.29,3.29,0,0,1-.69-2.22,3.58,3.58,0,0,1,.76-2.38,2.47,2.47,0,0,1,2-.9,1.68,1.68,0,0,1,1.62.83h0v-3.57h1.85Zm-1.82-2.92v-.45a1.42,1.42,0,0,0-.34-1,1.2,1.2,0,0,0-1.85.1,2.24,2.24,0,0,0-.35,1.33,1.94,1.94,0,0,0,.33,1.22,1.19,1.19,0,0,0,1.84,0A1.88,1.88,0,0,0,329.61,399.58Z"
              transform="translate(-57.5 -87.1)"/>
        <path id="_Compound_Path_30" data-name="&lt;Compound Path&gt;" class="cls-3"
              d="M347.06,402.2a5.54,5.54,0,0,1-2.4.45,4,4,0,0,1-3-1.14,4.16,4.16,0,0,1-1.11-3,4.44,4.44,0,0,1,1.25-3.27A4.36,4.36,0,0,1,345,394a6,6,0,0,1,2.07.31v1.82a3.68,3.68,0,0,0-1.92-.5,2.55,2.55,0,0,0-1.91.74,2.76,2.76,0,0,0-.73,2,2.71,2.71,0,0,0,.69,1.94A2.42,2.42,0,0,0,345,401a3.94,3.94,0,0,0,2-.54Z"
              transform="translate(-57.5 -87.1)"/>
        <path id="_Compound_Path_31" data-name="&lt;Compound Path&gt;" class="cls-3"
              d="M353.49,402.65a3.23,3.23,0,0,1-2.36-.84,3.48,3.48,0,0,1,0-4.61,3.37,3.37,0,0,1,2.41-.84,3.19,3.19,0,0,1,2.34.84,3,3,0,0,1,.85,2.22,3.17,3.17,0,0,1-.88,2.36A3.26,3.26,0,0,1,353.49,402.65Zm0-4.87a1.23,1.23,0,0,0-1,.45,2,2,0,0,0-.36,1.28q0,1.73,1.39,1.73t1.33-1.78Q354.88,397.77,353.53,397.77Z"
              transform="translate(-57.5 -87.1)"/>
        <path id="_Compound_Path_32" data-name="&lt;Compound Path&gt;" class="cls-3"
              d="M369.77,402.5h-1.85v-3.42q0-1.31-1-1.31a.88.88,0,0,0-.74.39,1.61,1.61,0,0,0-.29,1v3.36h-1.85V399q0-1.27-.94-1.27a.9.9,0,0,0-.76.38,1.65,1.65,0,0,0-.28,1v3.33h-1.85v-6h1.85v.94h0a2.27,2.27,0,0,1,1.94-1.08,1.73,1.73,0,0,1,1.74,1.12,2.22,2.22,0,0,1,2-1.12q2,0,2,2.41Z"
              transform="translate(-57.5 -87.1)"/>
        <path id="_Compound_Path_33" data-name="&lt;Compound Path&gt;" class="cls-3"
              d="M375.39,401.8h0v3.46h-1.85V396.5h1.85v.9h0a2.36,2.36,0,0,1,3.73-.25,3.41,3.41,0,0,1,.64,2.18,3.69,3.69,0,0,1-.74,2.41,2.42,2.42,0,0,1-2,.91A1.87,1.87,0,0,1,375.39,401.8Zm-.05-2.46v.48a1.53,1.53,0,0,0,.33,1,1.07,1.07,0,0,0,.86.39,1.14,1.14,0,0,0,1-.49,2.36,2.36,0,0,0,.35-1.39q0-1.58-1.23-1.58a1.16,1.16,0,0,0-.93.43A1.72,1.72,0,0,0,375.34,399.34Z"
              transform="translate(-57.5 -87.1)"/>
        <path id="_Compound_Path_34" data-name="&lt;Compound Path&gt;" class="cls-3"
              d="M388.23,402.5h-1.75v-.86h0a2,2,0,0,1-1.79,1,1.87,1.87,0,0,1-1.37-.5,1.77,1.77,0,0,1-.5-1.32q0-1.75,2.07-2l1.63-.22q0-1-1.07-1a3.64,3.64,0,0,0-2,.64v-1.39a4.59,4.59,0,0,1,1.06-.35,5.56,5.56,0,0,1,1.22-.15,2.27,2.27,0,0,1,2.57,2.56Zm-1.74-2.44v-.4l-1.09.14q-.9.12-.9.81a.67.67,0,0,0,.22.52.84.84,0,0,0,.59.2,1.1,1.1,0,0,0,.85-.36A1.3,1.3,0,0,0,386.49,400.06Z"
              transform="translate(-57.5 -87.1)"/>
        <path id="_Compound_Path_35" data-name="&lt;Compound Path&gt;" class="cls-3"
              d="M397.77,402.5h-1.85v-3.33q0-1.39-1-1.39a1,1,0,0,0-.79.37,1.41,1.41,0,0,0-.31.94v3.42H392v-6h1.85v.95h0a2.12,2.12,0,0,1,1.93-1.1q2,0,2,2.47Z"
              transform="translate(-57.5 -87.1)"/>
        <path id="_Compound_Path_36" data-name="&lt;Compound Path&gt;" class="cls-3"
              d="M407.23,396.5,404.79,403q-.88,2.34-2.65,2.34a3.39,3.39,0,0,1-1.11-.15v-1.48a1.56,1.56,0,0,0,.8.22,1,1,0,0,0,1-.67l.32-.74-2.44-6h2.05l1.12,3.65a4.74,4.74,0,0,1,.16.8h0a5.6,5.6,0,0,1,.19-.79l1.13-3.66Z"
              transform="translate(-57.5 -87.1)"/>
    </g>
    <path class="cls-4"
          d="M153.29,289.28a8,8,0,0,0-4.35,1.08,3.62,3.62,0,0,0-1.7,3.27,3.8,3.8,0,0,0,1.7,3.35q1.7,1.16,7.24,2.5a19.91,19.91,0,0,1,8.35,3.76q2.81,2.42,2.81,7.14a9.45,9.45,0,0,1-3.56,7.65,14.17,14.17,0,0,1-9.32,2.94,21.9,21.9,0,0,1-15-5.82l3.81-4.58q5.46,4.74,11.33,4.74a7.74,7.74,0,0,0,4.66-1.26,4,4,0,0,0,1.73-3.35,3.76,3.76,0,0,0-1.62-3.25,17.06,17.06,0,0,0-5.59-2.11,50.14,50.14,0,0,1-6-1.75,13.58,13.58,0,0,1-3.66-2.09q-3.19-2.42-3.19-7.42a9,9,0,0,1,3.63-7.7,14.63,14.63,0,0,1,9-2.7,21.54,21.54,0,0,1,6.85,1.13,17.93,17.93,0,0,1,5.87,3.19L163,292.58a12.28,12.28,0,0,0-4.33-2.37A16.65,16.65,0,0,0,153.29,289.28Z"
          transform="translate(-57.5 -87.1)"/>
    <path class="cls-4" d="M189.74,320.55h-6.18V306.33l-13.39-21.79h6.65l9.84,16.38,9.84-16.38h6.65l-13.39,21.79Z"
          transform="translate(-57.5 -87.1)"/>
    <path class="cls-4" d="M235.74,284.54h6.08v36h-6.59l-20.4-26.27v26.27h-6.08v-36h6.08l20.92,26.89Z"
          transform="translate(-57.5 -87.1)"/>
    <path class="cls-4" d="M278.14,284.54v5.72H258.93v9.53h17.26v5.41H258.93v9.63h19.83v5.72H252.85v-36Z"
          transform="translate(-57.5 -87.1)"/>
    <path class="cls-4"
          d="M304,315a12.72,12.72,0,0,0,5.41-1.06,18.64,18.64,0,0,0,4.74-3.37l3.91,4A18,18,0,0,1,304.18,321a18.61,18.61,0,0,1-13.55-5.26,19.1,19.1,0,0,1,.1-26.69,19,19,0,0,1,13.86-5.36,18.12,18.12,0,0,1,14,6.18l-3.86,4.22a16.87,16.87,0,0,0-4.87-3.45,13.63,13.63,0,0,0-5.38-1,12.8,12.8,0,0,0-9.17,3.53,11.9,11.9,0,0,0-3.71,9,12.44,12.44,0,0,0,3.68,9.17A11.93,11.93,0,0,0,304,315Z"
          transform="translate(-57.5 -87.1)"/>
    <path class="cls-4" d="M340.12,290.11v30.45H334V290.11H323.12v-5.56H351v5.56Z" transform="translate(-57.5 -87.1)"/>
    <path class="cls-5" d="M358.66,284.54h6.08v36h-6.08Z" transform="translate(-57.5 -87.1)"/>
    <path class="cls-4"
          d="M375.77,284.54h6.08v17.57l16.49-17.57h7.73l-14.48,15.76,14.68,20.25h-7.21l-12-15.76-5.26,5.67v10.1h-6.08Z"
          transform="translate(-57.5 -87.1)"/>
    <path class="cls-4"
          d="M423.34,289.28a8,8,0,0,0-4.36,1.08,3.62,3.62,0,0,0-1.7,3.27A3.8,3.8,0,0,0,419,297q1.7,1.16,7.24,2.5a19.91,19.91,0,0,1,8.35,3.76q2.81,2.42,2.81,7.14a9.45,9.45,0,0,1-3.55,7.65A14.16,14.16,0,0,1,424.5,321a21.9,21.9,0,0,1-15-5.82l3.81-4.58q5.46,4.74,11.33,4.74a7.74,7.74,0,0,0,4.66-1.26,4,4,0,0,0,1.73-3.35,3.76,3.76,0,0,0-1.62-3.25,17.08,17.08,0,0,0-5.59-2.11,50.17,50.17,0,0,1-6-1.75,13.57,13.57,0,0,1-3.66-2.09q-3.2-2.42-3.2-7.42a9,9,0,0,1,3.63-7.7,14.63,14.63,0,0,1,9-2.7,21.54,21.54,0,0,1,6.85,1.13A18,18,0,0,1,436.3,288l-3.25,4.59a12.28,12.28,0,0,0-4.33-2.37A16.66,16.66,0,0,0,423.34,289.28Z"
          transform="translate(-57.5 -87.1)"/>
</svg>
