<?xml version="1.0" encoding="UTF-8" standalone="no"?>
<svg width="80px" height="26px" viewBox="0 0 80 26" version="1.1" xmlns="http://www.w3.org/2000/svg"
     xmlns:xlink="http://www.w3.org/1999/xlink">
    <!-- Generator: Sketch 39.1 (31720) - http://www.bohemiancoding.com/sketch -->
    <title>Artboard Copy</title>
    <desc>Created with Sketch.</desc>
    <defs></defs>
    <g id="Page-1" stroke="none" stroke-width="1" fill="none" fill-rule="evenodd">
        <g id="Artboard-Copy">
            <path d="M39.994,0.042 C32.8139375,0.042 26.994,5.86211938 26.994,13.0415937 C26.994,20.2218806 32.8139375,26.042 39.994,26.042 C47.1740625,26.042 52.994,20.2218806 52.994,13.0415937 C52.994,5.86211938 47.17325,0.042 39.994,0.042 L39.994,0.042 Z M43.8411875,7.69030151 L42.02525,7.69030151 C41.383375,7.69030151 41.250125,7.95355974 41.250125,8.61658046 L41.250125,10.2205056 L43.840375,10.2205056 L43.590125,13.0350935 L41.246875,13.0350935 L41.246875,21.4422938 L37.889625,21.4422938 L37.889625,13.0700321 L36.1451875,13.0700321 L36.1451875,10.2196931 L37.889625,10.2196931 L37.889625,7.97549792 C37.889625,5.86943211 39.0165625,4.76927273 41.5141875,4.76927273 L43.837125,4.76927273 L43.8411875,7.69030151 L43.8411875,7.69030151 L43.8411875,7.69030151 Z"
                  id="Shape" fill="#E3E3E3"></path>
            <path d="M13,0 C5.82075,0 0,5.8199375 0,13 C0,20.17925 5.82075,26 13,26 C20.17925,26 26,20.1800625 26,13 C26,5.8199375 20.17925,0 13,0 M19.537375,10.7599375 C19.7283125,14.9995625 16.5676875,19.729125 10.9679375,19.729125 C9.264125,19.729125 7.6805625,19.2294375 6.3464375,18.373875 C7.94625,18.5599375 9.5444375,18.1195625 10.8103125,17.1250625 C9.4908125,17.1015 8.376875,16.228875 7.9925625,15.03125 C8.464625,15.1214375 8.929375,15.0954375 9.355125,14.980875 C7.9048125,14.6891875 6.9021875,13.3794375 6.9355,11.984375 C7.34175,12.21025 7.8056875,12.3459375 8.3029375,12.361375 C6.9606875,11.464375 6.579625,9.6906875 7.3701875,8.33625 C8.8570625,10.161125 11.0784375,11.3611875 13.5841875,11.487125 C13.144625,9.6005 14.5754375,7.7845625 16.51975,7.7845625 C17.385875,7.7845625 18.17075,8.149375 18.72,8.736 C19.409,8.601125 20.054125,8.3500625 20.6334375,8.00475 C20.41,8.708375 19.93225,9.299875 19.30825,9.672 C19.917625,9.5996875 20.499375,9.4371875 21.0396875,9.1975 C20.6375,9.803625 20.1264375,10.335 19.537375,10.7599375"
                  id="Shape" fill="#E3E3E3"></path>
            <path d="M66.9875916,26 C74.167836,26 79.988,20.1796531 79.988,13.0008169 C79.988,5.82116376 74.167836,0 66.9875916,0 C59.8073471,0 53.988,5.82116376 53.988,13.0008169 C53.988,20.1796531 59.8073471,26 66.9875916,26"
                  id="Shape" fill="#E3E3E3"></path>
            <path d="M63.0378788,18.117 L60.3370303,18.117 L60.3370303,9.2055 L63.0378788,9.2055 L63.0378788,18.117 L63.0378788,18.117 Z M61.6173333,8.0915625 L61.5984242,8.0915625 C60.6206667,8.0915625 59.988,7.409875 59.988,6.547 C59.988,5.6670625 60.6403636,5 61.6378182,5 C62.633697,5 63.2458788,5.6654375 63.264,6.5445625 C63.264,7.40825 62.6329091,8.0915625 61.6173333,8.0915625 L61.6173333,8.0915625 Z M73.839697,18.117 L70.7764242,18.117 L70.7764242,13.5044375 C70.7764242,12.2986875 70.2989697,11.474 69.2455758,11.474 C68.4411515,11.474 67.9928485,12.02975 67.7840606,12.5668125 C67.7060606,12.7585625 67.7178788,13.025875 67.7178788,13.2948125 L67.7178788,18.117 L64.6845455,18.117 C64.6845455,18.117 64.7247273,9.9489375 64.6845455,9.2055 L67.7178788,9.2055 L67.7178788,10.6054375 C67.898303,9.993625 68.8658182,9.1218125 70.414,9.1218125 C72.3324848,9.1218125 73.8404848,10.4023125 73.8404848,13.1631875 L73.8404848,18.117 L73.839697,18.117 Z"
                  id="Shape" fill="#FFFFFF"></path>
        </g>
    </g>
</svg>
